<?xml version="1.0" encoding="utf-8"?><!DOCTYPE svg PUBLIC "-//W3C//DTD SVG 1.1//EN" "http://www.w3.org/Graphics/SVG/1.1/DTD/svg11.dtd"><svg version="1.1" id="Laag_1" xmlns="http://www.w3.org/2000/svg" xmlns:xlink="http://www.w3.org/1999/xlink" x="0px" y="0px" viewBox="0 0 196.1 115.3" enable-background="new 0 0 196.1 115.3" xml:space="preserve"><g><path fill="#FFFFFF" d="M128,115.3l-9.1-25.7H76.7l-9.1,25.7H43L87.1,0h22.4l43.8,115.3H128z M103.6,46.8c-2.3-6.8-4.6-13.7-5.8-18c-1.2,4.3-3.5,11.2-5.8,18l-7.4,20.9H111L103.6,46.8z"/></g><path fill="#F18A00" d="M38.2,60.8c-0.5,1.6-2.3,2.5-3.9,1.9L2.1,52c-1.6-0.5-2.5-2.3-1.9-3.9l2.7-8c0.5-1.6,2.3-2.5,3.9-1.9L38.9,49c1.6,0.5,2.5,2.3,1.9,3.9L38.2,60.8z"/><path fill="#F18A00" d="M36.4,86.1c0.5,1.6-0.3,3.4-1.9,3.9l-22.9,8.1c-1.6,0.5-3.4-0.3-3.9-1.9l-2.7-8c-0.5-1.6,0.3-3.4,1.9-3.9l22.9-8.1c1.6-0.5,3.4,0.3,3.9,1.9L36.4,86.1z"/><path fill="#F18A00" d="M30.1,12.6c-1.3,1-1.6,3-0.6,4.3l14.5,19.5c1,1.3,3,1.6,4.3,0.6l6.6-5.1c1.3-1,1.6-3,0.6-4.3L41.1,8c-1-1.3-3-1.6-4.3-0.6L30.1,12.6z"/><path fill="#F18A00" d="M157.9,60.8c0.5,1.6,2.3,2.5,3.9,1.9L194,52c1.6-0.5,2.5-2.3,1.9-3.9l-2.7-8c-0.5-1.6-2.3-2.5-3.9-1.9L157.2,49c-1.6,0.5-2.5,2.3-1.9,3.9L157.9,60.8z"/><path fill="#F18A00" d="M159.6,86.1c-0.5,1.6,0.3,3.4,1.9,3.9l22.9,8.1c1.6,0.5,3.4-0.3,3.9-1.9l2.7-8c0.5-1.6-0.3-3.4-1.9-3.9l-22.9-8.1c-1.6-0.5-3.4,0.3-3.9,1.9L159.6,86.1z"/><path fill="#F18A00" d="M165.9,12.6c1.3,1,1.6,3,0.6,4.3L152,36.4c-1,1.3-3,1.6-4.3,0.6l-6.6-5.1c-1.4-1-1.6-3-0.6-4.3L155,8c1-1.3,3-1.6,4.3-0.6L165.9,12.6z"/></svg>